<?xml version="1.0" encoding="utf-8"?>
<!-- Generator: Adobe Illustrator 18.1.1, SVG Export Plug-In . SVG Version: 6.00 Build 0)  -->
<svg version="1.1" xmlns="http://www.w3.org/2000/svg">
<g>
	<path d="M20.863,31.105l1.758-20.355h7.312l-1.758,20.355H20.863z M21.461,31.105l0.176-2.109h23.098l-0.176,2.109H21.461z
		 M22.304,21.262l0.176-2.109h22.676l-0.176,2.109H22.304z M22.867,12.859l0.176-2.109h23.238l-0.176,2.109H22.867z"/>
	<path d="M48.988,31.105l1.055-11.953h7.312L56.3,31.105H48.988z M50.148,21.262l0.176-2.109h23.309l-0.176,2.109H50.148z
		 M65.441,31.105l1.055-11.953h7.312l-1.055,11.953H65.441z"/>
	<path d="M76.691,35.992l0.211-2.109h23.309l-0.176,2.109H76.691z M77.113,31.105l1.055-11.953h7.312l-1.055,11.953H77.113z
		 M77.113,31.105l0.211-2.109h23.309l-0.176,2.109H77.113z M78.273,21.262l0.176-2.109h23.309l-0.176,2.109H78.273z M93.144,35.992
		l1.477-16.84h7.312l-1.477,16.84H93.144z"/>
	<path d="M105.836,31.105l1.02-11.953h7.312l-1.02,11.953H105.836z M107.277,14.09l0.281-3.375h7.312l-0.281,3.375H107.277z"/>
	<path d="M117.297,31.105l1.055-11.953h7.312l-1.055,11.953H117.297z M118.457,21.262l0.176-2.109h23.309l-0.176,2.109H118.457z
		 M133.75,31.105l1.055-11.953h7.312l-1.055,11.953H133.75z"/>
	<path d="M145.422,31.105l1.055-11.953h7.312l-1.055,11.953H145.422z M146.582,21.262l0.176-2.109h23.309l-0.176,2.109H146.582z
		 M161.875,31.105l1.055-11.953h7.312l-1.055,11.953H161.875z"/>
	<path d="M173.547,31.105l1.055-11.953h7.312l-1.055,11.953H173.547z M173.547,31.105l0.211-2.109h23.309l-0.176,2.109H173.547z
		 M174.179,25.867l0.176-2.109h23.309l-0.176,2.109H174.179z M174.707,21.262l0.176-2.109h23.309l-0.176,2.109H174.707z
		 M190.457,25.867l0.562-6.715h7.312l-0.562,6.715H190.457z"/>
	<path d="M201.672,31.105l1.055-11.953h7.312l-1.055,11.953H201.672z M202.832,21.262l0.176-2.109h19.512l-0.176,2.109H202.832z"/>
	<path d="M226.281,31.105l1.02-11.953h7.312l-1.02,11.953H226.281z M227.722,14.09l0.281-3.375h7.312l-0.281,3.375H227.722z"/>
	<path d="M237.742,31.105l1.055-11.953h7.312l-1.055,11.953H237.742z M238.902,21.262l0.176-2.109h23.309l-0.176,2.109H238.902z
		 M254.195,31.105l1.055-11.953h7.312l-1.055,11.953H254.195z"/>
	<path d="M265.445,35.992l0.211-2.109h23.309l-0.176,2.109H265.445z M265.867,31.105l1.055-11.953h7.312l-1.055,11.953H265.867z
		 M265.867,31.105l0.211-2.109h23.309l-0.176,2.109H265.867z M267.027,21.262l0.176-2.109h23.309l-0.176,2.109H267.027z
		 M281.898,35.992l1.477-16.84h7.312l-1.477,16.84H281.898z"/>
</g>
</svg>
