<?xml version="1.0" encoding="utf-8"?>
<!-- Generator: Adobe Illustrator 18.1.1, SVG Export Plug-In . SVG Version: 6.00 Build 0)  -->
<svg version="1.1" id="レイヤー_1" xmlns="http://www.w3.org/2000/svg" xmlns:xlink="http://www.w3.org/1999/xlink" x="0px"
	 y="0px" width="308.667px" height="47.667px" viewBox="0 0 308.667 47.667" style="enable-background:new 0 0 308.667 47.667;"
	 xml:space="preserve">
<g>
	<path d="M83.792,30.734l1.758-20.355h7.312l-1.758,20.355H83.792z M84.389,30.734l0.176-2.109h23.098l-0.176,2.109H84.389z
		 M85.796,12.488l0.176-2.109h23.238l-0.176,2.109H85.796z M96.624,20.89l0.176-2.109h11.285l-0.176,2.109H96.624z M100.245,30.734
		l1.055-11.953h7.312l-1.055,11.953H100.245z"/>
	<path d="M111.917,30.734l1.055-11.953h7.312l-1.055,11.953H111.917z M113.077,20.89l0.176-2.109h19.512l-0.176,2.109H113.077z"/>
	<path d="M135.928,30.734l0.633-7.348h7.312l-0.633,7.348H135.928z M135.928,30.734l0.211-2.109h23.309l-0.176,2.109H135.928z
		 M136.561,25.496l0.176-2.109h23.309l-0.176,2.109H136.561z M137.089,20.89l0.176-2.109h23.309l-0.176,2.109H137.089z
		 M152.417,30.734l1.055-11.953h7.312l-1.055,11.953H152.417z"/>
	<path d="M164.053,30.734l1.055-11.953h6.891l-1.055,11.953H164.053z M165.214,20.89l0.176-2.109h23.871l-0.176,2.109H165.214z
		 M173.967,30.734l1.055-11.953h6.891l-1.055,11.953H173.967z M183.882,30.734l1.055-11.953h6.891l-1.055,11.953H183.882z"/>
	<path d="M194.991,30.734l1.055-11.953h7.312l-1.055,11.953H194.991z M194.991,30.734l0.211-2.109h23.309l-0.176,2.109H194.991z
		 M198.507,35.621l0.211-2.109h19.371l-0.176,2.109H198.507z M211.022,35.621l1.477-16.84h7.312l-1.477,16.84H211.022z"/>
</g>
</svg>
